<svg xmlns="http://www.w3.org/2000/svg" version="1.1" xmlns:xlink="http://www.w3.org/1999/xlink" width="502.9848800362155" height="200" viewBox="-1.2859258651733398 12.880000114440918 85.36592864990234 27.919998168945312"><path d="M13 14.80L13 14.80Q13 13.88 12.92 14.04Q12.84 14.20 12.68 15.40L12.68 15.40Q12.36 17.56 12.08 21.16L12.08 21.16Q11.92 23.08 11.84 24.36Q11.76 25.64 11.76 26.40L11.76 26.40Q11.76 26.96 11.76 27.84L11.76 27.84Q11.76 28.68 11.80 29.84L11.80 29.84Q11.84 31 11.86 31.86Q11.88 32.72 11.88 33.28L11.88 33.28Q11.88 36.28 11.52 37.52L11.52 37.52Q10.84 40 8.68 40L8.68 40Q6.64 40 2.88 38.24L2.88 38.24Q-1.16 36.24-1.28 34.52L-1.28 34.52Q-1.36 33.68-0.36 33.68L-0.36 33.68Q0.20 33.68 1.36 34.88L1.36 34.88Q3.20 36.92 3.56 37.16L3.56 37.16Q5.04 38.36 6.56 38.36L6.56 38.36Q8.88 38.36 9.68 35.72L9.68 35.72Q10.24 33.80 10.24 29.44L10.24 29.44Q10.24 27.68 10.22 25.78Q10.20 23.88 10.16 21.76L10.16 21.76L10.08 16.20Q10.08 15.92 9.88 15.40Q9.68 14.88 9.68 14.64L9.68 14.64Q9.68 13.68 10.80 13.68L10.80 13.68Q13 13.68 13 14.80ZM23.40 28.64L23.40 28.64Q23.40 28.92 22.80 31.32L22.80 31.32Q21.28 37.32 19.80 39.36L19.80 39.36Q18.88 40.52 17.68 40.52L17.68 40.52Q16 40.52 14.96 38.64L14.96 38.64Q14.16 37.04 14.16 35.24L14.16 35.24Q14.16 34 14.28 32.64Q14.40 31.28 14.68 29.76L14.68 29.76Q15.44 25.40 16.88 25.40L16.88 25.40Q17.72 25.40 18.44 26Q19.16 26.60 19.16 27.44L19.16 27.44Q19.16 30.40 17.44 34.08L17.44 34.08Q16.76 35.60 15.76 37.16L15.76 37.16Q15.76 37.84 16.44 38.72L16.44 38.72Q17.08 39.56 17.80 39.56L17.80 39.56Q19.72 39.56 22.12 30.44L22.12 30.44Q22.72 28.16 22.88 28.16L22.88 28.16Q23.40 28.16 23.40 28.64ZM18.08 27.88L18.08 27.88Q18.08 26.52 17.52 26.52L17.52 26.52Q17.20 26.52 17.04 27.04L17.04 27.04Q15.56 31.48 15.56 35.68L15.56 35.68Q16.48 35.12 17.32 32.08L17.32 32.08Q18.08 29.44 18.08 27.88ZM31 28.64L31 28.64Q31 28.92 30.40 31.32L30.40 31.32Q28.88 37.32 27.40 39.36L27.40 39.36Q26.48 40.52 25.28 40.52L25.28 40.52Q23.60 40.52 22.56 38.64L22.56 38.64Q21.76 37.04 21.76 35.24L21.76 35.24Q21.76 34 21.88 32.64Q22 31.28 22.28 29.76L22.28 29.76Q23.04 25.40 24.48 25.40L24.48 25.40Q25.32 25.40 26.04 26Q26.76 26.60 26.76 27.44L26.76 27.44Q26.76 30.40 25.04 34.08L25.04 34.08Q24.36 35.60 23.36 37.16L23.36 37.16Q23.36 37.84 24.04 38.72L24.04 38.72Q24.68 39.56 25.40 39.56L25.40 39.56Q27.32 39.56 29.72 30.44L29.72 30.44Q30.32 28.16 30.48 28.16L30.48 28.16Q31 28.16 31 28.64ZM25.68 27.88L25.68 27.88Q25.68 26.52 25.12 26.52L25.12 26.52Q24.80 26.52 24.64 27.04L24.64 27.04Q23.16 31.48 23.16 35.68L23.16 35.68Q24.08 35.12 24.92 32.08L24.92 32.08Q25.68 29.44 25.68 27.88ZM41.76 20.80L41.76 20.80Q41.60 21 39.76 21.32L39.76 21.32Q38.24 21.60 37.48 21.60L37.48 21.60Q36.68 21.60 35.80 21.60L35.80 21.60Q34.92 21.60 33.96 21.56L33.96 21.56L32.04 21.52Q31.08 28.24 31.08 31.36L31.08 31.36Q31.08 33.16 31.10 34.28Q31.12 35.40 31.16 35.84L31.16 35.84Q31.32 38.28 32.28 38.28L32.28 38.28Q33.84 38.28 35.80 29.96L35.80 29.96Q36.20 28.16 36.48 28.16L36.48 28.16Q36.88 28.16 36.88 28.76L36.88 28.76Q36.88 30.08 35.48 34.40L35.48 34.40Q33.72 39.64 32.16 39.64L32.16 39.64Q30.80 39.64 30.12 36.92L30.12 36.92Q29.68 35.04 29.68 33.20L29.68 33.20Q29.68 32.28 29.94 29.38Q30.20 26.48 30.72 21.56L30.72 21.56Q30.04 21.48 26.68 21.44L26.68 21.44L25.76 21.72Q25.48 21.40 24.92 21.16L24.92 21.16Q24.48 20.96 24.48 20.72L24.48 20.72Q24.48 20.44 24.96 20.44L24.96 20.44Q25.72 20.44 27.16 20.38Q28.60 20.32 30.80 20.24L30.80 20.24Q30.84 19.80 30.88 19.06Q30.92 18.32 31 17.28L31 17.28L30.80 16.56Q30.92 16.28 31.24 16.28L31.24 16.28Q31.76 16.28 32.84 17L32.84 17L32.84 17.84Q32.76 18.36 32.64 18.96Q32.52 19.56 32.36 20.28L32.36 20.28Q32.68 20.28 33.62 20.30Q34.56 20.32 36.16 20.36L36.16 20.36Q36.96 20.40 38.34 20.42Q39.72 20.44 41.76 20.52L41.76 20.52L41.76 20.80ZM44.48 28.64L44.48 28.64Q44.48 28.92 43.88 31.32L43.88 31.32Q42.36 37.32 40.88 39.36L40.88 39.36Q39.96 40.52 38.76 40.52L38.76 40.52Q37.08 40.52 36.04 38.64L36.04 38.64Q35.24 37.04 35.24 35.24L35.24 35.24Q35.24 34 35.36 32.64Q35.48 31.28 35.76 29.76L35.76 29.76Q36.52 25.40 37.96 25.40L37.96 25.40Q38.80 25.40 39.52 26Q40.24 26.60 40.24 27.44L40.24 27.44Q40.24 30.40 38.52 34.08L38.52 34.08Q37.84 35.60 36.84 37.16L36.84 37.16Q36.84 37.84 37.52 38.72L37.52 38.72Q38.16 39.56 38.88 39.56L38.88 39.56Q40.80 39.56 43.20 30.44L43.20 30.44Q43.80 28.16 43.96 28.16L43.96 28.16Q44.48 28.16 44.48 28.64ZM39.16 27.88L39.16 27.88Q39.16 26.52 38.60 26.52L38.60 26.52Q38.28 26.52 38.12 27.04L38.12 27.04Q36.64 31.48 36.64 35.68L36.64 35.68Q37.56 35.12 38.40 32.08L38.40 32.08Q39.16 29.44 39.16 27.88ZM55.80 28.76L55.80 28.76Q55.80 29.88 54.40 34.20L54.40 34.20Q52.48 40 51.32 40L51.32 40Q49.84 40 49.28 37.16L49.28 37.16Q49.12 36.36 49.00 34.66Q48.88 32.96 48.76 30.28L48.76 30.28Q48.56 31 48.02 32.94Q47.48 34.88 46.68 38.12L46.68 38.12Q46.28 39.84 45.44 39.84L45.44 39.84Q44.20 39.84 43.92 38.16L43.92 38.16L43.76 35.16Q43.64 33.40 43.76 31.96L43.76 31.96L43.88 30.48L43.52 29.72Q43.56 28.64 43.72 28.28L43.72 28.28Q43.96 27.64 44.72 27.64L44.72 27.64Q45.52 27.64 45.52 28.36L45.52 28.36Q45.52 28.60 45.24 29.40L45.24 29.40Q45.00 30.20 45.00 30.68L45.00 30.68Q45.00 31.04 45.00 31.60L45.00 31.60Q45.00 32.12 44.96 32.84L44.96 32.84Q44.92 33.56 44.92 34.12L44.92 34.12Q44.92 34.64 44.92 35L44.92 35Q44.92 37.88 45.56 37.88L45.56 37.88Q45.76 37.88 46.08 36.84L46.08 36.84Q46.64 34.52 46.92 33.80L46.92 33.80Q47.48 32 47.84 30.48Q48.20 28.96 48.28 27.60L48.28 27.60Q48.40 25.92 48.84 25.60L48.84 25.60Q50.88 25.72 50.88 26.88L50.88 26.88Q50.88 26 50.76 26.56Q50.64 27.12 50.44 29.16L50.44 29.16Q50.24 31.16 50.14 32.42Q50.04 33.68 50.04 34.24L50.04 34.24Q50.04 38.56 51.16 38.56L51.16 38.56Q52.12 38.56 53.48 34.32L53.48 34.32Q53.88 33.08 54.22 31.86Q54.56 30.64 54.84 29.40L54.84 29.40Q55.12 28.16 55.48 28.16L55.48 28.16Q55.80 28.16 55.80 28.76ZM58.40 26.40L58.40 26.40Q57.08 26.40 55.96 30.36L55.96 30.36Q55.04 33.68 55.04 35.52L55.04 35.52Q55.04 39.40 55.92 39.40L55.92 39.40Q56.80 39.40 57.96 36.44L57.96 36.44Q58.40 35.32 58.72 34.28Q59.04 33.24 59.24 32.28L59.24 32.28Q59.28 32.04 59.32 31.54Q59.36 31.04 59.44 30.24L59.44 30.24Q59.52 29.60 59.56 29.10Q59.60 28.60 59.60 28.20L59.60 28.20Q59.60 26.40 58.40 26.40ZM61.16 39.04L61.16 39.04Q61.88 39.04 63.20 35L63.20 35Q64.08 32.36 64.88 29.08L64.88 29.08Q65.12 28.16 65.44 28.16L65.44 28.16Q65.76 28.16 65.76 28.76L65.76 28.76Q65.76 30.12 64.20 34.84L64.20 34.84Q62.44 40.08 61.40 40.08L61.40 40.08Q59.52 40.08 59.16 36.12L59.16 36.12Q58.72 37.24 58.42 37.88Q58.12 38.52 58.00 38.72L58.00 38.72Q57.04 40.52 56.08 40.52L56.08 40.52Q54.84 40.52 54.16 39L54.16 39Q53.64 37.92 53.64 36.36L53.64 36.36Q53.64 33.16 54.88 29.08L54.88 29.08Q56.28 24.56 57.80 24.56L57.80 24.56Q58.32 24.56 59.04 25.16L59.04 25.16Q59.80 25.72 59.84 25.72L59.84 25.72Q59.92 25.72 60.00 25.60L60.00 25.60Q60.24 23.72 60.62 20.88Q61.00 18.04 61.52 14.16L61.52 14.16Q61.40 13.08 61.88 12.92L61.88 12.92Q62.04 12.88 62.56 12.88L62.56 12.88Q63.52 12.88 63.36 14.08L63.36 14.08Q63.12 15.32 62.76 17.26Q62.40 19.20 61.88 21.84L61.88 21.84Q61.84 22.12 61.60 23.98Q61.36 25.84 60.92 29.36L60.92 29.36Q60.60 32 60.42 33.68Q60.24 35.36 60.24 36.04L60.24 36.04Q60.32 38.88 61.16 39.04ZM70.36 40.08L70.36 40.08Q69.12 40.08 68.28 38.68L68.28 38.68Q67.92 38.08 67.88 36.24L67.88 36.24Q67.80 34.88 67.88 32.52L67.88 32.52L67.96 29.32Q67.96 28.36 66.00 27.36L66.00 27.36Q66.00 28.36 65.04 31.64L65.04 31.64Q65.04 31.68 64.84 32.06Q64.64 32.44 64.64 32.48L64.64 32.48L64.12 32.32Q64.12 31.68 64.60 29.80L64.60 29.80Q65.12 28 65.12 26.96L65.12 26.96Q65.12 26.56 64.80 25.60L64.80 25.60Q64.48 24.64 64.48 24.20L64.48 24.20Q64.48 22.20 65.48 22.20L65.48 22.20Q66.28 22.20 66.32 23.44L66.32 23.44Q66.36 23.68 66.34 23.98Q66.32 24.28 66.28 24.68L66.28 24.68Q66.24 25.16 66.22 25.48Q66.20 25.80 66.20 25.96L66.20 25.96Q66.20 26.36 67.88 27.24L67.88 27.24Q69.60 28.12 69.60 29.28L69.60 29.28Q69.60 29.96 69.52 30.94Q69.44 31.92 69.28 33.24L69.28 33.24Q69.12 34.52 69.04 35.50Q68.96 36.48 68.96 37.16L68.96 37.16Q68.96 39.04 70.12 39.04L70.12 39.04Q70.80 39.04 72.24 34.84L72.24 34.84Q73.60 30.96 73.84 29.08L73.84 29.08Q73.96 28.16 74.40 28.16L74.40 28.16Q74.72 28.16 74.72 28.76L74.72 28.76Q74.72 30.12 73.16 34.84L73.16 34.84Q71.40 40.08 70.36 40.08ZM77.76 29.44L77.28 28.80Q77.12 26.96 76.28 26.96L76.28 26.96Q75.60 26.96 75.08 28.88L75.08 28.88Q74.92 29.32 74.72 30.04Q74.52 30.76 74.24 31.68L74.24 31.68Q73.60 34.12 73.60 37.72L73.60 37.72Q73.60 38.40 73.88 39L73.88 39Q74.24 39.76 74.80 39.76L74.80 39.76Q75.56 39.32 76.40 36.68L76.40 36.68Q76.72 35.64 76.96 34.74Q77.20 33.84 77.28 33.12L77.28 33.12L77.76 29.44ZM79.72 40L79.72 40Q78.24 40 77.28 37.08L77.28 37.08Q76.24 40.80 74.60 40.80L74.60 40.80Q72.24 40.80 72.36 34.96L72.36 34.96Q72.44 33.40 73.36 29.76L73.36 29.76Q74.52 25.60 75.32 25.60L75.32 25.60Q77.08 25.60 77.56 26.52L77.56 26.52L78.28 27.96L79.68 28.44Q78.68 31.36 78.32 35.60L78.32 35.60Q78.24 36.52 78.48 37.52L78.48 37.52Q78.80 38.92 79.48 38.92L79.48 38.92Q80.84 38.92 83.20 29.08L83.20 29.08Q83.44 28.16 83.76 28.16L83.76 28.16Q84.08 28.16 84.08 28.76L84.08 28.76Q84.08 30.24 82.60 34.80L82.60 34.80Q80.92 40 79.72 40Z" fill="black"></path></svg>